<svg width="109" height="96" viewBox="0 0 294 256" fill="none" xmlns="http://www.w3.org/2000/svg" xmlns:xlink="http://www.w3.org/1999/xlink">
    <g clip-path="url(#clip0_108_6)">
        <path d="M6.11264 33.3619L248.344 137.164L192.245 148.471L146.245 202.971L146.245 236.471L6.11264 33.3619Z" fill="black" fill-opacity="0.4"/>
        <g style="mix-blend-mode:luminosity">
            <path d="M287.472 33.362L146.745 236.471L146.745 204.971L100.245 148.971L45.2406 137.164L287.472 33.362Z" fill="#FF0000" fill-opacity="0.4"/>
        </g>
        <g style="mix-blend-mode:luminosity" filter="url(#filter0_di_108_6)">
            <rect x="31.2448" y="34.9714" width="231" height="175" fill="url(#pattern0)" style="mix-blend-mode:darken" shape-rendering="crispEdges"/>
        </g>
        <path d="M92.8454 123.389L92.389 122.64C91.9129 121.946 92.4258 121.005 93.2675 121.028L106.766 121.407C107.521 121.428 108.058 122.148 107.864 122.877L107.78 123.192C107.714 123.438 107.513 123.623 107.264 123.668C107.106 123.697 106.964 123.783 106.865 123.909L106.813 123.976C106.733 124.078 106.677 124.196 106.648 124.322L106.555 124.732C106.537 124.807 106.528 124.885 106.528 124.963V125.083C106.528 125.311 106.429 125.527 106.255 125.674C106.115 125.793 105.937 125.859 105.753 125.859H105.661C105.481 125.859 105.306 125.802 105.161 125.696L105.149 125.687C104.937 125.533 104.812 125.287 104.812 125.024C104.812 124.907 104.787 124.79 104.738 124.683L104.709 124.62C104.616 124.417 104.465 124.245 104.276 124.127C104.093 124.013 103.881 123.952 103.665 123.952H103.592C103.322 123.952 103.057 124.03 102.829 124.177L102.787 124.205C102.561 124.351 102.376 124.553 102.25 124.792L102.232 124.826C102.102 125.074 102.033 125.35 102.033 125.63V125.918L102.197 128.183V129.317C102.197 129.506 102.115 129.685 101.973 129.809C101.854 129.914 101.701 129.971 101.542 129.971H101.512C101.372 129.971 101.235 129.931 101.117 129.856L101.071 129.826C100.805 129.657 100.644 129.363 100.644 129.048V128.839L100.807 127.468V126.693V126.249C100.807 125.812 100.619 125.396 100.29 125.108C100.093 124.936 99.8558 124.818 99.6003 124.764L99.5151 124.747C99.4505 124.733 99.3846 124.726 99.3186 124.726C99.0678 124.726 98.8269 124.824 98.6471 124.999L98.6324 125.013C98.5048 125.137 98.4143 125.295 98.3712 125.467L98.3256 125.651C98.2924 125.784 98.2068 125.898 98.0883 125.967L98.0797 125.972C97.9448 126.051 97.7804 126.06 97.6373 125.998C97.5212 125.947 97.4294 125.853 97.3812 125.736L97.1754 125.236C97.0388 124.903 96.8074 124.619 96.5101 124.418L96.4367 124.368C96.0386 124.098 95.7438 123.702 95.6008 123.242L95.4511 122.762C95.4261 122.682 95.3837 122.608 95.3269 122.546L95.2687 122.482C95.157 122.36 94.9854 122.312 94.8264 122.358C94.7301 122.387 94.6465 122.447 94.5898 122.53L93.9798 123.419C93.8538 123.603 93.6453 123.713 93.4224 123.713C93.1867 123.713 92.968 123.59 92.8454 123.389Z" fill="white"/>
        <path d="M75.5947 122.971V100.571H79.0507V122.971H75.5947ZM56.4907 122.971V100.571H59.9467V122.971H56.4907ZM57.9947 113.595L58.0267 110.267H77.1307V113.595H57.9947ZM91.5094 122.971V100.571H110.101V103.899H94.9654V119.643H110.101V122.971H91.5094ZM93.3974 113.147V109.819H108.341V113.147H93.3974ZM133.041 123.291C131.249 123.291 129.563 123.025 127.985 122.491C126.427 121.937 125.051 121.158 123.857 120.155C122.683 119.131 121.766 117.915 121.105 116.507C120.443 115.078 120.113 113.499 120.113 111.771C120.113 110.129 120.454 108.614 121.137 107.227C121.841 105.841 122.79 104.635 123.985 103.611C125.179 102.587 126.555 101.798 128.113 101.243C129.67 100.667 131.313 100.379 133.041 100.379C134.491 100.379 135.878 100.571 137.201 100.955C138.523 101.318 139.718 101.787 140.785 102.363C141.873 102.918 142.737 103.505 143.377 104.123L141.329 107.035C140.561 106.395 139.739 105.83 138.865 105.339C137.99 104.849 137.041 104.465 136.017 104.187C135.014 103.91 133.915 103.771 132.721 103.771C131.59 103.771 130.481 103.963 129.393 104.347C128.326 104.71 127.355 105.243 126.481 105.947C125.606 106.63 124.913 107.473 124.401 108.475C123.889 109.457 123.633 110.555 123.633 111.771C123.633 113.115 123.899 114.299 124.433 115.323C124.966 116.326 125.691 117.169 126.609 117.851C127.526 118.534 128.561 119.057 129.713 119.419C130.865 119.761 132.059 119.931 133.297 119.931C134.577 119.931 135.718 119.771 136.721 119.451C137.723 119.11 138.619 118.694 139.409 118.203C140.198 117.713 140.913 117.233 141.553 116.763L143.217 119.643C142.619 120.134 141.798 120.667 140.753 121.243C139.729 121.819 138.555 122.31 137.233 122.715C135.931 123.099 134.534 123.291 133.041 123.291ZM151.167 122.971L162.111 100.571H166.143L177.023 122.971H173.215L165.695 107.547C165.503 107.142 165.311 106.747 165.119 106.363C164.927 105.979 164.735 105.595 164.543 105.211C164.372 104.827 164.202 104.422 164.031 103.995C163.86 103.569 163.69 103.099 163.519 102.587L164.543 102.555C164.351 103.067 164.159 103.547 163.967 103.995C163.796 104.443 163.615 104.87 163.423 105.275C163.231 105.681 163.039 106.086 162.847 106.491C162.655 106.875 162.463 107.27 162.271 107.675L154.815 122.971H151.167ZM155.935 117.723L157.311 114.395H170.591L171.135 117.723H155.935ZM186.597 122.971V100.571H199.685C201.008 100.571 202.213 100.881 203.301 101.499C204.41 102.097 205.296 102.918 205.957 103.963C206.618 105.009 206.949 106.171 206.949 107.451C206.949 108.795 206.586 110.022 205.861 111.131C205.136 112.219 204.176 113.094 202.981 113.755C201.786 114.395 200.474 114.715 199.045 114.715H190.053V122.971H186.597ZM203.941 122.971L196.325 112.859L200.005 112.059L208.261 123.003L203.941 122.971ZM190.053 111.387H198.725C199.536 111.387 200.282 111.206 200.965 110.843C201.669 110.481 202.224 110.001 202.629 109.403C203.056 108.806 203.269 108.155 203.269 107.451C203.269 106.79 203.056 106.193 202.629 105.659C202.224 105.126 201.669 104.699 200.965 104.379C200.282 104.059 199.536 103.899 198.725 103.899H190.053V111.387ZM229.213 123.291C227.613 123.291 226.13 123.131 224.765 122.811C223.421 122.491 222.183 122.011 221.053 121.371C219.943 120.731 218.93 119.921 218.013 118.939L220.189 116.059C221.575 117.489 222.983 118.534 224.413 119.195C225.863 119.857 227.474 120.187 229.245 120.187C230.354 120.187 231.421 120.059 232.445 119.803C233.469 119.526 234.311 119.121 234.973 118.587C235.634 118.033 235.965 117.339 235.965 116.507C235.965 115.974 235.783 115.537 235.421 115.195C235.058 114.854 234.578 114.577 233.981 114.363C233.405 114.15 232.775 113.979 232.093 113.851C231.41 113.723 230.749 113.627 230.109 113.563C229.49 113.499 228.967 113.446 228.541 113.403C227.111 113.211 225.81 112.955 224.637 112.635C223.485 112.294 222.493 111.867 221.661 111.355C220.85 110.843 220.221 110.214 219.773 109.467C219.346 108.721 219.133 107.857 219.133 106.875C219.133 105.83 219.378 104.902 219.869 104.091C220.381 103.259 221.085 102.566 221.981 102.011C222.898 101.435 223.954 100.998 225.149 100.699C226.365 100.401 227.677 100.251 229.085 100.251C230.578 100.251 231.943 100.401 233.181 100.699C234.418 100.998 235.517 101.446 236.477 102.043C237.458 102.619 238.269 103.334 238.909 104.187L236.605 106.715C236.007 105.99 235.314 105.382 234.525 104.891C233.735 104.379 232.871 103.995 231.933 103.739C231.015 103.483 230.034 103.355 228.989 103.355C227.837 103.355 226.802 103.483 225.885 103.739C224.967 103.995 224.242 104.358 223.709 104.827C223.175 105.275 222.909 105.83 222.909 106.491C222.909 107.067 223.069 107.558 223.389 107.963C223.73 108.369 224.199 108.71 224.797 108.987C225.394 109.243 226.109 109.457 226.941 109.627C227.794 109.798 228.733 109.947 229.757 110.075C231.037 110.225 232.274 110.417 233.469 110.651C234.663 110.886 235.73 111.217 236.669 111.643C237.607 112.049 238.354 112.603 238.909 113.307C239.463 114.011 239.741 114.929 239.741 116.059C239.741 117.51 239.303 118.779 238.429 119.867C237.554 120.955 236.327 121.798 234.749 122.395C233.191 122.993 231.346 123.291 229.213 123.291Z" fill="white"/>
        <path d="M188.983 103.283L188.868 103.213C188.739 103.136 188.64 103.017 188.587 102.877C188.422 102.439 188.745 101.971 189.213 101.971H201.425C201.847 101.971 202.162 102.36 202.074 102.773L202.051 102.88C201.999 103.124 201.784 103.298 201.534 103.298C201.444 103.298 201.355 103.321 201.276 103.366L201.129 103.448C201.026 103.506 200.935 103.585 200.864 103.68C200.75 103.829 200.689 104.012 200.689 104.199V104.352V104.799C200.689 104.886 200.699 104.974 200.717 105.059L200.796 105.419C200.818 105.52 200.797 105.625 200.739 105.709C200.706 105.756 200.663 105.795 200.613 105.823L200.332 105.977C200.242 106.027 200.14 106.053 200.037 106.053C199.954 106.053 199.872 106.036 199.796 106.004L199.579 105.911C199.394 105.832 199.275 105.651 199.275 105.451C199.275 105.355 199.302 105.262 199.354 105.182L199.442 105.044C199.518 104.925 199.558 104.788 199.558 104.648C199.558 104.458 199.484 104.275 199.353 104.138C199.213 103.993 199.02 103.91 198.818 103.91H198.64C198.453 103.91 198.27 103.955 198.104 104.041L197.87 104.164C197.63 104.288 197.37 104.369 197.102 104.401L196.61 104.46C196.458 104.479 196.315 104.543 196.2 104.646C196.003 104.822 195.913 105.09 195.964 105.35L195.979 105.425C196.008 105.569 196.073 105.703 196.17 105.814L196.229 105.883C196.324 105.993 196.376 106.133 196.376 106.278C196.376 106.459 196.296 106.63 196.156 106.745L196.095 106.795C195.957 106.909 195.783 106.971 195.604 106.971H195.428C195.354 106.971 195.279 106.96 195.208 106.937L195.106 106.904C194.97 106.86 194.86 106.759 194.805 106.628C194.769 106.541 194.759 106.446 194.775 106.354L194.839 106.003C194.874 105.811 194.875 105.615 194.843 105.422L194.754 104.885C194.751 104.87 194.75 104.855 194.75 104.84C194.75 104.714 194.663 104.604 194.54 104.574L194.258 104.506C194.209 104.494 194.159 104.488 194.108 104.488H194.063C193.739 104.488 193.434 104.335 193.241 104.075L193.194 104.012L193.047 103.772C192.919 103.562 192.691 103.434 192.445 103.434H192.387C192.269 103.434 192.154 103.473 192.06 103.545C191.928 103.647 191.851 103.804 191.851 103.97V104.815C191.851 105.01 191.739 105.189 191.563 105.273C191.431 105.337 191.279 105.34 191.145 105.284L191.127 105.277C190.923 105.191 190.79 104.991 190.79 104.769V104.488V103.917C190.79 103.744 190.698 103.585 190.549 103.499C190.475 103.456 190.392 103.434 190.307 103.434H189.528C189.336 103.434 189.148 103.382 188.983 103.283Z" fill="white"/>
        <path d="M158.498 117.452L158.12 116.64C157.73 115.897 158.289 115.01 159.128 115.04L168.824 115.396C169.568 115.423 170.11 116.112 169.961 116.841L169.869 117.291C169.831 117.476 169.69 117.622 169.506 117.666C169.379 117.696 169.269 117.776 169.202 117.888L169.134 118.003C169.083 118.087 169.049 118.18 169.032 118.277L168.951 118.737C168.939 118.809 168.932 118.882 168.932 118.956V119.182C168.932 119.349 168.871 119.51 168.759 119.635L168.733 119.663C168.621 119.788 168.462 119.859 168.294 119.859C168.142 119.859 167.996 119.8 167.886 119.696L167.846 119.657C167.702 119.52 167.62 119.329 167.62 119.129V119.015C167.62 118.903 167.601 118.792 167.564 118.686L167.515 118.545C167.461 118.391 167.365 118.255 167.239 118.151L167.233 118.147C167.079 118.02 166.886 117.952 166.687 117.952C166.482 117.952 166.284 118.024 166.128 118.156L166.034 118.236C165.885 118.363 165.769 118.523 165.696 118.704L165.632 118.862C165.541 119.087 165.495 119.328 165.495 119.571V119.918L165.62 122.183V123.399C165.62 123.537 165.57 123.671 165.478 123.776L165.445 123.814C165.357 123.914 165.231 123.971 165.099 123.971C164.991 123.971 164.887 123.934 164.805 123.865L164.714 123.789C164.536 123.64 164.432 123.42 164.432 123.187V122.839L164.557 121.468V120.693V120.087C164.557 119.748 164.434 119.42 164.211 119.164L164.139 119.082C164.004 118.928 163.827 118.817 163.629 118.763L163.573 118.748C163.521 118.734 163.468 118.726 163.414 118.726C163.228 118.726 163.053 118.812 162.938 118.957L162.87 119.044C162.788 119.149 162.732 119.271 162.707 119.402L162.647 119.718C162.629 119.809 162.579 119.89 162.506 119.946L162.487 119.96C162.378 120.043 162.23 120.053 162.111 119.985C162.036 119.942 161.98 119.873 161.955 119.791L161.775 119.221C161.674 118.897 161.486 118.608 161.232 118.383L161.211 118.364C160.908 118.096 160.694 117.74 160.601 117.346L160.452 116.724C160.439 116.669 160.416 116.616 160.383 116.57L160.311 116.467C160.236 116.359 160.096 116.316 159.972 116.363C159.906 116.388 159.852 116.436 159.819 116.499L159.31 117.471C159.231 117.62 159.077 117.713 158.908 117.713C158.732 117.713 158.572 117.611 158.498 117.452Z" fill="white"/>
        <path d="M125.603 121.676L125.591 121.622C125.413 120.771 126.062 119.971 126.931 119.971H137.901C138.616 119.971 139.171 120.596 139.087 121.306L139.007 121.977C138.981 122.195 138.797 122.359 138.577 122.359C138.461 122.359 138.351 122.405 138.269 122.488L138.107 122.652C138.018 122.742 137.947 122.848 137.898 122.964L137.833 123.118C137.738 123.344 137.689 123.588 137.689 123.834V124.257V125.298L137.805 126.251C137.822 126.389 137.805 126.529 137.755 126.658C137.712 126.771 137.645 126.872 137.56 126.957L137.304 127.209C137.234 127.279 137.139 127.318 137.04 127.318C136.957 127.318 136.876 127.291 136.81 127.24L136.651 127.118C136.414 126.936 136.275 126.653 136.275 126.354V126.194C136.275 126.047 136.3 125.901 136.35 125.762L136.432 125.529C136.515 125.295 136.558 125.049 136.558 124.801V124.522C136.558 124.348 136.515 124.177 136.433 124.023L136.354 123.875C136.218 123.62 135.953 123.461 135.665 123.461C135.466 123.461 135.275 123.537 135.131 123.673L134.841 123.944C134.623 124.149 134.353 124.291 134.06 124.354L133.88 124.393C133.558 124.463 133.278 124.66 133.104 124.94C132.96 125.172 132.897 125.445 132.927 125.717L132.984 126.236C133.01 126.466 133.074 126.69 133.174 126.899L133.206 126.965C133.318 127.197 133.376 127.453 133.376 127.711V127.914C133.376 128.124 133.313 128.33 133.196 128.505L133.091 128.659C132.96 128.854 132.738 128.971 132.503 128.971C132.381 128.971 132.26 128.939 132.154 128.878C131.986 128.781 131.867 128.62 131.823 128.431L131.789 128.283C131.763 128.171 131.756 128.056 131.767 127.942L131.839 127.225C131.874 126.88 131.875 126.532 131.843 126.186L131.75 125.175C131.75 124.915 131.595 124.68 131.357 124.577L131.32 124.561C131.23 124.522 131.133 124.502 131.036 124.502C130.742 124.502 130.475 124.325 130.363 124.053L130.194 123.645L129.96 122.956C129.889 122.745 129.691 122.604 129.469 122.604C129.303 122.604 129.147 122.684 129.049 122.819L128.988 122.904C128.899 123.027 128.851 123.176 128.851 123.328V125.429C128.851 125.579 128.786 125.722 128.672 125.82C128.488 125.98 128.217 125.988 128.022 125.841L128.005 125.828C127.87 125.726 127.79 125.565 127.79 125.396V124.502V123.219C127.79 123.06 127.729 122.907 127.618 122.793C127.502 122.672 127.342 122.604 127.175 122.604H126.746C126.42 122.604 126.109 122.468 125.888 122.229C125.745 122.074 125.646 121.883 125.603 121.676Z" fill="white"/>
        <circle cx="93.2448" cy="126.971" r="1" fill="white"/>
    </g>
    <defs>
        <filter id="filter0_di_108_6" x="27.2448" y="34.9714" width="239" height="183" filterUnits="userSpaceOnUse" color-interpolation-filters="sRGB">
            <feFlood flood-opacity="0" result="BackgroundImageFix"/>
            <feColorMatrix in="SourceAlpha" type="matrix" values="0 0 0 0 0 0 0 0 0 0 0 0 0 0 0 0 0 0 127 0" result="hardAlpha"/>
            <feOffset dy="4"/>
            <feGaussianBlur stdDeviation="2"/>
            <feComposite in2="hardAlpha" operator="out"/>
            <feColorMatrix type="matrix" values="0 0 0 0 1 0 0 0 0 0.979167 0 0 0 0 0.979167 0 0 0 1 0"/>
            <feBlend mode="normal" in2="BackgroundImageFix" result="effect1_dropShadow_108_6"/>
            <feBlend mode="normal" in="SourceGraphic" in2="effect1_dropShadow_108_6" result="shape"/>
            <feColorMatrix in="SourceAlpha" type="matrix" values="0 0 0 0 0 0 0 0 0 0 0 0 0 0 0 0 0 0 127 0" result="hardAlpha"/>
            <feOffset dy="4"/>
            <feGaussianBlur stdDeviation="2"/>
            <feComposite in2="hardAlpha" operator="arithmetic" k2="-1" k3="1"/>
            <feColorMatrix type="matrix" values="0 0 0 0 0 0 0 0 0 0 0 0 0 0 0 0 0 0 1 0"/>
            <feBlend mode="normal" in2="shape" result="effect2_innerShadow_108_6"/>
        </filter>
        <pattern id="pattern0" patternContentUnits="objectBoundingBox" width="1" height="1">
            <use xlink:href="#image0_108_6" transform="translate(-0.100145) scale(0.00190825 0.00251889)"/>
        </pattern>
        <clipPath id="clip0_108_6">
            <rect width="294" height="256" fill="white"/>
        </clipPath>
    </defs>
</svg>